<?xml version="1.0" encoding="UTF-8"?>
<svg width="48" height="48" viewBox="0 0 48 48" xmlns="http://www.w3.org/2000/svg">
  <path fill="#EA4335" d="M24 9.5c3.54 0 6.71 1.22 9.21 3.6l6.85-6.85C35.9 2.38 30.47 0 24 0 14.62 0 6.51 5.38 2.56 13.22l7.98 6.19C12.43 13.73 17.74 9.5 24 9.5z"/>
  <path fill="#4285F4" d="M46.5 24.5c0-1.54-.14-3.02-.39-4.5H24v8.51h12.7c-.55 2.97-2.21 5.49-4.7 7.18l7.26 5.63c4.25-3.92 6.74-9.7 6.74-16.82z"/>
  <path fill="#FBBC05" d="M10.54 28.41c-.48-1.45-.76-2.99-.76-4.41s.27-2.96.76-4.41l-7.98-6.19C.92 16.46 0 20.12 0 24c0 3.88.92 7.54 2.56 10.59l7.98-6.18z"/>
  <path fill="#34A853" d="M24 48c6.48 0 11.93-2.14 15.9-5.82l-7.26-5.63c-2.02 1.36-4.61 2.18-8.64 2.18-6.26 0-11.57-4.23-13.47-9.91l-7.98 6.18C6.51 42.62 14.62 48 24 48z"/>
</svg>
